HIERARCHY
ROOT hip
{
	OFFSET 0.000000 0.000000 0.000000
	CHANNELS 6 Xposition Yposition Zposition Xrotation Zrotation Yrotation 
	JOINT abdomen
	{
		OFFSET 0.000000 3.422050 0.000000
		CHANNELS 3 Xrotation Zrotation Yrotation 
		JOINT chest
		{
			OFFSET 0.000000 8.486693 -0.684411
			CHANNELS 3 Xrotation Zrotation Yrotation 
			JOINT neck
			{
				OFFSET 0.000000 10.266162 -0.273764
				CHANNELS 3 Xrotation Zrotation Yrotation 
				JOINT head
				{
					OFFSET 0.000000 3.148285 0.000000
					CHANNELS 3 Xrotation Zrotation Yrotation 
					End Site
					{
						OFFSET 0.000000 3.148289 0.000000
					}
				}
			}
			JOINT lCollar
			{
				OFFSET 3.422053 6.707223 -0.821293
				CHANNELS 3 Yrotation Zrotation Xrotation 
				JOINT lShldr
				{
					OFFSET 3.285171 0.000000 0.000000
					CHANNELS 3 Zrotation Yrotation Xrotation 
					JOINT lForeArm
					{
						OFFSET 10.129278 0.000000 0.000000
						CHANNELS 3 Yrotation Zrotation Xrotation 
						JOINT lHand
						{
							OFFSET 8.486692 0.000000 0.000000
							CHANNELS 3 Zrotation Yrotation Xrotation 
							End Site
							{
								OFFSET 4.106464 0.000000 0.000000
							}
						}
					}
				}
			}
			JOINT rCollar
			{
				OFFSET -3.558935 6.707223 -0.821293
				CHANNELS 3 Yrotation Zrotation Xrotation 
				JOINT rShldr
				{
					OFFSET -3.148289 0.000000 0.000000
					CHANNELS 3 Zrotation Yrotation Xrotation 
					JOINT rForeArm
					{
						OFFSET -10.266159 0.000000 0.000000
						CHANNELS 3 Yrotation Zrotation Xrotation 
						JOINT rHand
						{
							OFFSET -8.349810 0.000000 0.000000
							CHANNELS 3 Zrotation Yrotation Xrotation 
							End Site
							{
								OFFSET -4.106464 0.000000 0.000000
							}
						}
					}
				}
			}
		}
	}
	JOINT lThigh
	{
		OFFSET 5.338403 -1.642589 1.368821
		CHANNELS 3 Xrotation Zrotation Yrotation 
		JOINT lShin
		{
			OFFSET -2.053232 -20.121670 0.000000
			CHANNELS 3 Xrotation Zrotation Yrotation 
			JOINT lFoot
			{
				OFFSET 0.000000 -19.300380 -1.231939
				CHANNELS 3 Xrotation Yrotation Zrotation 
				End Site
				{
					OFFSET 0.000000 -2.463878 4.653993
				}
			}
		}
	}
	JOINT rThigh
	{
		OFFSET -5.338403 -1.642589 1.368821
		CHANNELS 3 Xrotation Zrotation Yrotation 
		JOINT rShin
		{
			OFFSET 2.053232 -20.121670 0.000000
			CHANNELS 3 Xrotation Zrotation Yrotation 
			JOINT rFoot
			{
				OFFSET 0.000000 -19.300380 -1.231939
				CHANNELS 3 Xrotation Yrotation Zrotation 
				End Site
				{
					OFFSET 0.000000 -2.463878 4.653993
				}
			}
		}
	}
}
MOTION
Frames: 14
Frame Time: 0.033264
19.995884 19.711863 0.376963 -51.996662 0.132942 -179.715454 31.738237 -0.157248 -0.138394 28.776564 -0.588976 -0.836083 -8.586852 9.997101 -0.001685 -2.916444 0.000000 0.000000 -28.799950 17.956923 -19.691248 5.284707 -40.342583 -5.858728 -8.375119 6.956264 -11.217323 58.923687 3.256501 -9.964362 22.191973 -12.750585 -22.025803 -7.892138 55.517933 -7.305581 10.137499 -10.705050 -10.717052 -58.681831 -6.979085 -0.695404 -153.817535 38.623508 2.964650 99.971985 14.984406 0.388437 -0.846283 1.702400 12.519468 -153.839539 -38.637669 -2.964035 99.959343 -15.003904 -0.393482 -0.838519 -1.714071 -12.532176 
19.995884 19.711863 0.337164 -51.996662 0.132942 -179.715454 31.312429 -0.157315 -0.138410 29.252628 -0.588933 -0.836046 -9.801453 9.997120 -0.001615 -3.774834 0.000000 0.000000 -29.684130 18.374527 -19.384851 5.150431 -39.408710 -5.801135 -8.189687 6.696212 -11.252641 59.163750 3.134942 -10.164438 22.867706 -13.084214 -21.800528 -7.736039 54.897469 -7.194951 9.812664 -10.584937 -10.778358 -58.833023 -6.841046 -0.896278 -153.817535 38.623508 2.964650 99.971985 14.984406 0.388437 -0.982827 1.622644 12.497446 -153.839539 -38.637669 -2.964036 99.959343 -15.003904 -0.393482 -0.974661 -1.634690 -12.510613 
19.995884 19.711863 0.297365 -51.996662 0.132942 -179.715454 30.886662 -0.157383 -0.138426 29.728668 -0.588891 -0.836010 -11.017564 9.997139 -0.001545 -4.633754 0.000000 0.000000 -30.572577 18.787468 -19.071032 5.019145 -38.474987 -5.747104 -8.004519 6.436055 -11.287088 59.404213 3.014227 -10.364997 23.545591 -13.415173 -21.570959 -7.584369 54.276905 -7.088900 9.488100 -10.464492 -10.838944 -58.984638 -6.703536 -1.097453 -153.817535 38.623508 2.964650 99.971985 14.984406 0.388437 -1.119395 1.542942 12.475241 -153.839539 -38.637669 -2.964036 99.959343 -15.003904 -0.393482 -1.110827 -1.555362 -12.488861 
19.995884 19.711863 0.235877 -51.996662 0.132942 -179.715454 30.460917 -0.157451 -0.138441 30.204660 -0.588849 -0.835973 -12.234909 9.997160 -0.001475 -5.493110 0.000000 0.000000 -31.465237 19.195570 -18.749817 4.890684 -37.541557 -5.696475 -7.819606 6.175800 -11.320672 59.645042 2.894360 -10.566024 24.225618 -13.743384 -21.337118 -7.436905 53.656292 -6.987207 9.163803 -10.343714 -10.898806 -59.136692 -6.566563 -1.298931 -153.817535 38.623508 2.964650 99.971985 14.984406 0.388437 -1.255987 1.463293 12.452843 -153.839539 -38.637669 -2.964036 99.959343 -15.003904 -0.393482 -1.247016 -1.476086 -12.466926 
19.995884 19.711863 0.174388 -51.996662 0.132942 -179.715454 30.035217 -0.157518 -0.138456 30.680578 -0.588807 -0.835936 -13.453222 9.997183 -0.001406 -6.352805 0.000000 0.000000 -32.362053 19.598665 -18.421272 4.764889 -36.608543 -5.649098 -7.634951 5.915457 -11.353395 59.886261 2.775347 -10.767520 24.907740 -14.068754 -21.099024 -7.293438 53.035683 -6.889663 8.839788 -10.222617 -10.957951 -59.289185 -6.430129 -1.500707 -153.817535 38.623508 2.964650 99.971985 14.984406 0.388437 -1.392604 1.383699 12.430261 -153.839539 -38.637669 -2.964036 99.959343 -15.003904 -0.393482 -1.383229 -1.396863 -12.444797 
19.995884 19.711863 0.112900 -51.996662 0.132942 -179.715454 29.609581 -0.157586 -0.138470 31.156420 -0.588766 -0.835898 -14.672221 9.997206 -0.001336 -7.212742 0.000000 0.000000 -33.262966 19.996578 -18.085453 4.641613 -35.676067 -5.604831 -7.450543 5.655029 -11.385254 60.127834 2.657192 -10.969475 25.591948 -14.391209 -20.856707 -7.153775 52.415131 -6.796075 8.516048 -10.101199 -11.016365 -59.442104 -6.294239 -1.702781 -153.817535 38.623508 2.964650 99.971985 14.984406 0.388437 -1.529244 1.304161 12.407486 -153.839539 -38.637669 -2.964036 99.959343 -15.003904 -0.393482 -1.519465 -1.317695 -12.422484 
19.995884 19.711863 0.051411 -51.996662 0.132942 -179.715454 29.184010 -0.157654 -0.138484 31.632164 -0.588725 -0.835860 -15.891639 9.997231 -0.001268 -8.072824 0.000000 0.000000 -34.167915 20.389149 -17.742426 4.520717 -34.744263 -5.563543 -7.266377 5.394525 -11.416255 60.369804 2.539905 -11.171893 26.278214 -14.710677 -20.610203 -7.017725 51.794647 -6.706256 8.192592 -9.979475 -11.074059 -59.595459 -6.158899 -1.905151 -153.817535 38.623508 2.964650 99.971985 14.984406 0.388437 -1.665909 1.224679 12.384521 -153.839539 -38.637669 -2.964036 99.959343 -15.003904 -0.393482 -1.655724 -1.238582 -12.399982 
19.995884 19.711863 -0.010077 -51.996662 0.132942 -179.715454 28.758532 -0.157722 -0.138497 32.107784 -0.588684 -0.835822 -17.111191 9.997257 -0.001200 -8.932954 0.000000 0.000000 -35.076828 20.776213 -17.392265 4.402073 -33.813278 -5.525111 -7.082453 5.133953 -11.446402 60.612110 2.423486 -11.374757 26.966494 -15.027069 -20.359533 -6.885121 51.174290 -6.620036 7.869421 -9.857447 -11.131024 -59.749226 -6.024107 -2.107813 -153.817535 38.623508 2.964650 99.971985 14.984406 0.388437 -1.802598 1.145254 12.361369 -153.839539 -38.637672 -2.964037 99.959343 -15.003904 -0.393482 -1.792008 -1.159525 -12.377297 
19.995884 19.711863 -0.071566 -51.996662 0.132942 -179.715454 28.333141 -0.157790 -0.138510 32.583286 -0.588644 -0.835784 -18.330606 9.997286 -0.001133 -9.793035 0.000000 0.000000 -35.989616 21.157608 -17.035049 4.285560 -32.883224 -5.489421 -6.898761 4.873317 -11.475691 60.854786 2.307944 -11.578067 27.656773 -15.340317 -20.104746 -6.755804 50.554134 -6.537257 7.546535 -9.735122 -11.187261 -59.903442 -5.889877 -2.310767 -153.817535 38.623508 2.964650 99.971985 14.984406 0.388437 -1.939312 1.065888 12.338035 -153.839539 -38.637669 -2.964036 99.959343 -15.003904 -0.393482 -1.928314 -1.080524 -12.354422 
19.995884 19.711863 -0.133054 -51.996662 0.132942 -179.715454 27.907860 -0.157858 -0.138522 33.058636 -0.588603 -0.835745 -19.549606 9.997314 -0.001066 -10.652972 0.000000 0.000000 -36.906204 21.533178 -16.670868 4.171062 -31.954241 -5.456366 -6.715298 4.612624 -11.504124 61.097805 2.193281 -11.781814 28.349018 -15.650344 -19.845871 -6.629616 49.934185 -6.457763 7.223943 -9.612506 -11.242769 -60.058060 -5.756206 -2.514010 -153.817535 38.623508 2.964650 99.971985 14.984406 0.388437 -2.076050 0.986580 12.314507 -153.839539 -38.637669 -2.964037 99.959343 -15.003904 -0.393482 -2.064644 -1.001581 -12.331363 
19.995884 19.711863 -0.194543 -51.996662 0.132942 -179.715454 27.482691 -0.157926 -0.138534 33.533810 -0.588564 -0.835705 -20.767921 9.997347 -0.001000 -11.512666 0.000000 0.000000 -37.826488 21.902775 -16.299810 4.058469 -31.026442 -5.425842 -6.532059 4.351884 -11.531711 61.341164 2.079504 -11.985995 29.043177 -15.957068 -19.582937 -6.506416 49.314491 -6.381414 6.901642 -9.489605 -11.297547 -60.213097 -5.623100 -2.717539 -153.817535 38.623508 2.964650 99.971985 14.984406 0.388437 -2.212811 0.907332 12.290795 -153.839539 -38.637669 -2.964036 99.959343 -15.003904 -0.393482 -2.200997 -0.922696 -12.308117 
19.995884 19.711861 -0.256031 -51.996662 0.132942 -179.715454 27.057655 -0.157995 -0.138545 34.008820 -0.588524 -0.835666 -21.985271 9.997378 -0.000935 -12.372024 0.000000 0.000000 -38.750378 22.266237 -15.921984 3.947680 -30.099941 -5.397754 -6.349038 4.091101 -11.558445 61.584873 1.966618 -12.190606 29.739231 -16.260427 -19.315998 -6.386068 48.695107 -6.308075 6.579640 -9.366426 -11.351593 -60.368561 -5.490563 -2.921353 -153.817535 38.623508 2.964650 99.971985 14.984406 0.388437 -2.349597 0.828144 12.266894 -153.839539 -38.637669 -2.964036 99.959343 -15.003904 -0.393482 -2.337373 -0.843870 -12.284685 
19.995884 19.711861 -0.317520 -51.996662 0.132942 -179.715454 26.632753 -0.158063 -0.138555 34.483624 -0.588485 -0.835626 -23.201384 9.997415 -0.000871 -13.230943 0.000000 0.000000 -39.677773 22.623430 -15.537492 3.838600 -29.174887 -5.372015 -6.166231 3.830283 -11.584332 61.828907 1.854627 -12.395633 30.437130 -16.560343 -19.045094 -6.268447 48.076061 -6.237621 6.257938 -9.242978 -11.404907 -60.524437 -5.358599 -3.125450 -153.817535 38.623508 2.964650 99.971985 14.984406 0.388437 -2.486406 0.749016 12.242802 -153.839539 -38.637669 -2.964036 99.959343 -15.003904 -0.393482 -2.473773 -0.765104 -12.261065 
19.995884 19.711861 -0.379008 -51.996662 0.132942 -179.715454 26.208014 -0.158132 -0.138565 34.958225 -0.588446 -0.835586 -24.415977 9.997446 -0.000807 -14.089332 0.000000 0.000000 -40.608543 22.974207 -15.146450 3.731138 -28.251390 -5.348542 -5.983631 3.569436 -11.609371 62.073273 1.743537 -12.601078 31.136835 -16.856743 -18.770269 -6.153430 47.457401 -6.169930 5.936537 -9.119261 -11.457484 -60.680698 -5.227211 -3.329826 -153.817535 38.623508 2.964650 99.971985 14.984406 0.388437 -2.623240 0.669951 12.218524 -153.839539 -38.637665 -2.964035 99.959343 -15.003904 -0.393482 -2.610196 -0.686398 -12.237262 
